<svg width="206" height="55" viewBox="0 0 206 55" fill="none" xmlns="http://www.w3.org/2000/svg">
<path d="M72.3456 30.3341H70.6419V40.6281H66.9561V16.2854H72.2767C76.241 16.2854 78.3968 18.4412 78.3968 22.4414V24.181C78.3968 26.753 77.4926 28.5615 75.7889 29.5376L79.1634 40.6311H75.2679L72.3456 30.3341ZM70.6389 26.9267H72.133C73.9056 26.9267 74.705 25.9865 74.705 23.9355V22.6839C74.705 20.6329 73.9056 19.6927 72.133 19.6927H70.6389V26.9267Z" fill="black"/>
<path d="M88.6312 19.6927V26.5794H94.0207V29.9868H88.6312V37.2207H95.3082V40.6281H84.9453V16.2854H95.3082V19.6927H88.6312Z" fill="black"/>
<path d="M111.135 37.1489V40.6251H101.293V16.2824H104.979V37.1489H111.135Z" fill="black"/>
<path d="M124.372 40.6281L123.573 35.0978H119.504L118.704 40.6281H115.019L119.225 16.2854H123.92L128.127 40.6281H124.372ZM119.989 31.7593H123.085L121.591 21.5012H121.486L119.989 31.7593Z" fill="black"/>
<path d="M138.826 19.7616V40.6281H135.14V19.7616H131.211V16.2854H142.757V19.7616H138.826Z" fill="black"/>
<path d="M148.38 40.6281V16.2854H152.066V40.6281H148.38Z" fill="black"/>
<path d="M170.217 22.0911V34.8194C170.217 38.646 167.956 40.9754 164.27 40.9754C160.584 40.9754 158.324 38.646 158.324 34.8194V22.0911C158.324 18.2645 160.584 15.9351 164.27 15.9351C167.956 15.9381 170.217 18.2675 170.217 22.0911ZM162.01 22.127V34.7865C162.01 36.5949 162.809 37.568 164.27 37.568C165.731 37.568 166.531 36.5949 166.531 34.7865V22.127C166.531 20.3185 165.731 19.3454 164.27 19.3454C162.809 19.3454 162.01 20.3185 162.01 22.127Z" fill="black"/>
<path d="M184.858 40.6281L180.026 24.4924H179.957V40.6281H176.478V16.2854H180.58L184.927 30.7862H184.996V16.2854H188.472V40.6281H184.858Z" fill="black"/>
<path d="M204.802 37.1489V40.6251H194.96V16.2824H198.646V37.1489H204.802Z" fill="black"/>
<path d="M26.3998 2.04501C40.2958 2.04501 51.6019 13.3511 51.6019 27.2471C51.6019 32.454 50.015 37.2986 47.2962 41.3198C46.5207 40.3646 45.6794 39.4634 44.7811 38.622L45.0296 38.1998C46.9819 34.8912 48.0148 31.1036 48.0148 27.2471C48.0148 15.3272 38.3167 5.62905 26.3968 5.62905C14.477 5.62905 4.7788 15.3272 4.7788 27.2471V40.1909C2.50921 36.4033 1.19775 31.9749 1.19775 27.2471C1.19775 13.3511 12.5038 2.04501 26.3998 2.04501ZM6.47651 42.6611V27.2471C6.47651 16.2614 15.4141 7.32376 26.3998 7.32376C37.3855 7.32376 46.3231 16.2614 46.3231 27.2471C46.3231 30.8012 45.371 34.2894 43.5715 37.3405L43.4876 37.4842C42.5594 36.7177 41.5833 36.014 40.5653 35.3793C41.9876 32.9121 42.7391 30.1065 42.7391 27.2471C42.7391 18.2376 35.4093 10.9078 26.3998 10.9078C17.3903 10.9078 10.0605 18.2376 10.0605 27.2471V46.4189C8.7431 45.293 7.53944 44.0325 6.47651 42.6611ZM26.3998 47.1704C24.9985 47.1704 23.6062 47.4399 22.3098 47.9549V44.1672C23.6332 43.781 25.0075 43.5864 26.3998 43.5864C31.0648 43.5864 35.4033 45.7931 38.17 49.5268C37.0831 50.1047 35.9483 50.6017 34.7746 51.0179C32.6667 48.5717 29.6276 47.1704 26.3998 47.1704ZM26.3998 41.8916C25.0105 41.8916 23.6422 42.0653 22.3098 42.4096V38.7298C23.6482 38.4483 25.0195 38.3076 26.3998 38.3076C32.7894 38.3076 38.7987 41.3946 42.5505 46.5805C41.6342 47.3471 40.6641 48.0477 39.6461 48.6795C36.5681 44.4157 31.6726 41.8916 26.3998 41.8916ZM32.1816 27.2471C32.1816 24.0583 29.5886 21.4653 26.3998 21.4653C23.211 21.4653 20.618 24.0583 20.618 27.2471V51.7784C19.3844 51.488 18.1868 51.1078 17.034 50.6437V27.2471C17.034 22.0821 21.2348 17.8783 26.4028 17.8783C31.5678 17.8783 35.7716 22.0791 35.7716 27.2471C35.7716 29.1274 35.2207 30.9269 34.1727 32.4749C32.8732 32.0827 31.5498 31.7922 30.2024 31.6006C31.4121 30.5407 32.1816 28.9837 32.1816 27.2471ZM26.3998 16.1866C20.3007 16.1866 15.3393 21.1479 15.3393 27.2471V49.8891C14.0817 49.2723 12.8841 48.5537 11.7553 47.7453V27.2471C11.7553 19.1718 18.3245 12.6025 26.3998 12.6025C34.4751 12.6025 41.0444 19.1718 41.0444 27.2471C41.0444 29.8071 40.3707 32.3192 39.0982 34.5289C38.9065 34.4271 38.7179 34.3253 38.5233 34.2265C37.637 33.7774 36.7327 33.3822 35.8165 33.0348C36.8914 31.2952 37.4573 29.3101 37.4573 27.2441C37.4603 21.1479 32.499 16.1866 26.3998 16.1866ZM22.3098 52.1168V49.8083C23.5763 49.1915 24.9806 48.8651 26.3998 48.8651C28.882 48.8651 31.2354 49.8442 32.984 51.5778C30.8851 52.1467 28.6784 52.4521 26.3998 52.4521C25.0075 52.4491 23.6422 52.3354 22.3098 52.1168ZM43.82 45.4458C39.7449 39.9065 33.2745 36.6159 26.4028 36.6159C25.0255 36.6159 23.6571 36.7476 22.3128 37.0051V33.3612C23.6571 33.1396 25.0315 33.0289 26.4028 33.0289C30.3971 33.0289 34.2206 33.9391 37.7628 35.7386C41.0534 37.4063 43.9847 39.8257 46.2662 42.742C45.5147 43.7001 44.6973 44.6044 43.82 45.4458Z" fill="#EA5C29"/>
</svg>
